<svg width="32" height="32" viewBox="0 0 32 32" fill="none" xmlns="http://www.w3.org/2000/svg">
<g clip-path="url(#clip0_0_763)">
<path d="M12.0001 24.9999C12.1317 25.0007 12.2621 24.9755 12.384 24.9257C12.5058 24.8759 12.6166 24.8026 12.7101 24.7099L20.7101 16.7099C20.8038 16.617 20.8782 16.5064 20.929 16.3845C20.9797 16.2627 21.0059 16.132 21.0059 15.9999C21.0059 15.8679 20.9797 15.7372 20.929 15.6154C20.8782 15.4935 20.8038 15.3829 20.7101 15.2899L12.7101 7.28994C12.5218 7.10164 12.2664 6.99585 12.0001 6.99585C11.7338 6.99585 11.4784 7.10164 11.2901 7.28994C11.1018 7.47825 10.996 7.73364 10.996 7.99994C10.996 8.26624 11.1018 8.52164 11.2901 8.70994L18.5901 15.9999L11.2901 23.2899C11.1963 23.3829 11.1219 23.4935 11.0712 23.6154C11.0204 23.7372 10.9943 23.8679 10.9943 23.9999C10.9943 24.132 11.0204 24.2627 11.0712 24.3845C11.1219 24.5064 11.1963 24.617 11.2901 24.7099C11.3835 24.8026 11.4943 24.8759 11.6162 24.9257C11.738 24.9755 11.8685 25.0007 12.0001 24.9999Z" fill="white"/>
</g>
<defs>
<clipPath id="clip0_0_763">
<rect width="32" height="32" fill="white" transform="matrix(-1 0 0 1 32 0)"/>
</clipPath>
</defs>
</svg>
