<svg width="32" height="32" viewBox="0 0 32 32" fill="none" xmlns="http://www.w3.org/2000/svg">
<g clip-path="url(#clip0_0_753)">
<path d="M20 24.9999C19.8684 25.0007 19.7379 24.9755 19.6161 24.9257C19.4943 24.8759 19.3834 24.8026 19.29 24.7099L11.29 16.7099C11.1963 16.617 11.1219 16.5064 11.0711 16.3845C11.0203 16.2627 10.9942 16.132 10.9942 15.9999C10.9942 15.8679 11.0203 15.7372 11.0711 15.6154C11.1219 15.4935 11.1963 15.3829 11.29 15.2899L19.29 7.28994C19.4783 7.10164 19.7337 6.99585 20 6.99585C20.2663 6.99585 20.5217 7.10164 20.71 7.28994C20.8983 7.47825 21.0041 7.73364 21.0041 7.99994C21.0041 8.26624 20.8983 8.52164 20.71 8.70994L13.41 15.9999L20.71 23.2899C20.8037 23.3829 20.8781 23.4935 20.9289 23.6154C20.9797 23.7372 21.0058 23.8679 21.0058 23.9999C21.0058 24.132 20.9797 24.2627 20.9289 24.3845C20.8781 24.5064 20.8037 24.617 20.71 24.7099C20.6166 24.8026 20.5057 24.8759 20.3839 24.9257C20.2621 24.9755 20.1316 25.0007 20 24.9999Z" fill="white"/>
</g>
<defs>
<clipPath id="clip0_0_753">
<rect width="32" height="32" fill="white"/>
</clipPath>
</defs>
</svg>
