<svg width="13" height="13" viewBox="0 0 13 13" fill="none" xmlns="http://www.w3.org/2000/svg">
<path d="M6.5 2.60001C3.54545 2.60001 1.02227 4.21721 0 6.50001C1.02227 8.78281 3.54545 10.4 6.5 10.4C9.45455 10.4 11.9777 8.78281 13 6.50001C11.9777 4.21721 9.45455 2.60001 6.5 2.60001ZM6.5 9.10001C4.86909 9.10001 3.54545 7.93521 3.54545 6.50001C3.54545 5.06481 4.86909 3.90001 6.5 3.90001C8.13091 3.90001 9.45455 5.06481 9.45455 6.50001C9.45455 7.93521 8.13091 9.10001 6.5 9.10001ZM6.5 4.94001C5.51909 4.94001 4.72727 5.63681 4.72727 6.50001C4.72727 7.36321 5.51909 8.06001 6.5 8.06001C7.48091 8.06001 8.27273 7.36321 8.27273 6.50001C8.27273 5.63681 7.48091 4.94001 6.5 4.94001Z" fill="#00822C"/>
</svg>
