<svg width="20" height="20" viewBox="0 0 20 20" fill="none" xmlns="http://www.w3.org/2000/svg">
<path fill-rule="evenodd" clip-rule="evenodd" d="M8.90578 0.00304955C9.23056 0.002573 9.59298 0.00304955 10.0001 0.00304955C13.257 0.00304955 13.6431 0.0147736 14.9292 0.0731993C16.1186 0.127622 16.7641 0.326345 17.1941 0.493331C17.7633 0.714453 18.1692 0.978751 18.5959 1.40574C19.0228 1.83274 19.2872 2.23943 19.5087 2.80882C19.6757 3.23829 19.8747 3.88393 19.9288 5.07341C19.9872 6.35945 20 6.74584 20 10.0017C20 13.2575 19.9872 13.6439 19.9288 14.9299C19.8744 16.1194 19.6757 16.765 19.5087 17.1945C19.2876 17.7639 19.0228 18.1693 18.5959 18.5961C18.1689 19.0231 17.7636 19.2874 17.1941 19.5085C16.7646 19.6762 16.1186 19.8745 14.9292 19.9289C13.6434 19.9873 13.257 20 10.0001 20C6.74287 20 6.35682 19.9873 5.07095 19.9289C3.88162 19.874 3.23607 19.6752 2.80589 19.5082C2.23657 19.2871 1.82993 19.0228 1.40299 18.5958C0.976051 18.1688 0.711787 17.7631 0.490217 17.1936C0.323253 16.764 0.12427 16.1185 0.0701398 14.929C0.0116263 13.6428 0 13.2565 0 9.99862C0 6.74069 0.0116263 6.3564 0.0701398 5.07036C0.12446 3.88088 0.323253 3.23524 0.490217 2.8052C0.711311 2.2359 0.976051 1.82921 1.40299 1.40222C1.82993 0.975224 2.23657 0.710926 2.80589 0.489232C3.23588 0.321485 3.88162 0.123237 5.07095 0.0686236C6.19624 0.0178228 6.63233 0.0025734 8.90578 0V0.00304955ZM16.5115 2.0287C15.7034 2.0287 15.0477 2.68377 15.0477 3.4922C15.0477 4.30044 15.7034 4.95618 16.5115 4.95618C17.3196 4.95618 17.9753 4.30044 17.9753 3.4922C17.9753 2.68396 17.3196 2.0287 16.5115 2.0287ZM10.0001 3.73925C6.54055 3.73925 3.73572 6.54454 3.73572 10.0044C3.73572 13.4644 6.54055 16.2684 10.0001 16.2684C13.4596 16.2684 16.2634 13.4644 16.2634 10.0044C16.2634 6.54454 13.4596 3.73925 10.0001 3.73925Z" fill="#00822C"/>
<path fill-rule="evenodd" clip-rule="evenodd" d="M9.78389 5.71867C12.0294 5.71867 13.85 7.5393 13.85 9.78531C13.85 12.0311 12.0294 13.852 9.78389 13.852C7.53808 13.852 5.71777 12.0311 5.71777 9.78531C5.71777 7.5393 7.53808 5.71867 9.78389 5.71867Z" fill="#00822C"/>
</svg>
