<svg width="26" height="26" viewBox="0 0 26 26" fill="none" xmlns="http://www.w3.org/2000/svg">
<path d="M21.6145 19.4375L17.6687 15.4743C18.484 14.2401 18.9612 12.7624 18.9612 11.1738C18.9612 6.86948 15.4746 3.36761 11.1891 3.36761C6.90364 3.36761 3.41711 6.86948 3.41711 11.1738C3.41711 15.4782 6.90364 18.9801 11.1891 18.9801C12.7707 18.9801 14.242 18.5008 15.4707 17.6819L19.4166 21.6451C20.0228 22.2548 21.0083 22.2548 21.6145 21.6451C22.2215 21.0354 22.2215 20.0472 21.6145 19.4375ZM5.74872 11.1738C5.74872 8.16063 8.18913 5.70947 11.1891 5.70947C14.1891 5.70947 16.6295 8.16063 16.6295 11.1738C16.6295 14.187 14.1891 16.6382 11.1891 16.6382C8.18913 16.6382 5.74872 14.187 5.74872 11.1738Z" fill="black" fill-opacity="0.6"/>
</svg>
