<svg width="99" height="43" viewBox="0 0 99 43" fill="none" xmlns="http://www.w3.org/2000/svg">
<g clip-path="url(#clip0_0_15)">
<path d="M28.85 22.3643L31.837 42.8674H30.422C28.8835 42.8509 27.4031 42.3718 26.2492 41.5172C25.0953 40.6625 24.3445 39.4888 24.133 38.2091L22.0898 24.6304H19.7317V18.7695H22.0898C22.4432 18.7709 22.7933 18.7131 23.1198 18.5996C23.4463 18.4861 23.7426 18.3192 23.9914 18.1085C24.2402 17.8978 24.4366 17.6476 24.569 17.3725C24.7015 17.0975 24.7673 16.803 24.7628 16.5063V8.5183C24.7673 8.2216 24.7015 7.92712 24.569 7.65203C24.4366 7.37694 24.2402 7.12676 23.9914 6.91608C23.7426 6.7054 23.4463 6.53844 23.1198 6.42495C22.7933 6.31146 22.4432 6.25371 22.0898 6.25507H19.5747C19.2571 4.20824 18.0875 2.32175 16.2727 0.929517L15.4867 0.263733H22.0898C24.6818 0.283936 27.1596 1.16229 28.9847 2.70794C30.8099 4.25358 31.8349 6.34161 31.837 8.5183V16.5063C31.8454 17.6027 31.5845 18.6888 31.0705 19.6967C30.5566 20.7046 29.8007 21.6127 28.85 22.3643Z" fill="#00822C"/>
<path d="M33.9587 0.263733V42.8674H41.1908V6.38908C41.1775 4.77703 40.4132 3.23341 39.0615 2.08861C37.7099 0.943815 35.8783 0.288789 33.9587 0.263733Z" fill="#00822C"/>
<path d="M15.5643 2.39367C13.9966 0.929516 11.7912 0.263733 8.96121 0.263733C6.13117 0.263733 3.93013 0.929516 2.35808 2.39367C0.786028 3.72523 1.1865e-06 5.72187 1.1865e-06 8.2517V35.0113C-0.14584 37.1466 0.699358 39.2463 2.35808 40.8693C3.93013 42.3335 6.13117 42.9993 8.96121 42.9993C11.7912 42.9993 13.9923 42.3335 15.5643 40.8693C17.1372 39.5371 17.9224 37.5411 17.9224 35.0113V8.2517C17.9224 5.72187 17.1364 3.72523 15.5643 2.39367ZM11.0095 35.1446C11.0095 37.0079 10.0664 37.2745 8.96547 37.2745C8.02241 37.2745 6.92147 37.0079 6.92147 35.1446V7.98295C6.92147 6.11962 7.86452 5.85302 8.96547 5.85302C9.90853 5.85302 11.0095 6.11962 11.0095 7.98295V35.1446Z" fill="#00822C"/>
<path d="M99 0.263733V6.38837H93.654V42.8667C92.7411 42.8754 91.8344 42.74 90.981 42.4675C90.0593 42.1484 89.2228 41.6778 88.5208 41.0834C87.8188 40.4889 87.2653 39.7826 86.893 39.006C86.7681 38.8494 86.7125 38.661 86.7359 38.4735C86.5789 38.0744 86.5789 37.6745 86.4219 37.2753V6.38693H77.6177C77.8229 4.89197 78.5945 3.49189 79.8188 2.39295C81.3908 0.928084 83.5918 0.263017 86.4219 0.263017L99 0.263733Z" fill="#00822C"/>
<path d="M77.6177 7.98797V24.6297L69.7566 0H60.1664V35.2808H67.0845V11.3162L75.2596 36.7449C75.7809 38.4728 76.9792 40.0033 78.6617 41.09C80.3442 42.1767 82.4132 42.7566 84.5358 42.7363V7.98797H77.6177Z" fill="#00822C"/>
<path d="M50.3961 37.1434V24.4957H55.4272V18.6369H50.3961V5.85373H58.0994V0.263733H43.164V36.6109C43.1264 38.1683 43.8102 39.6772 45.0712 40.8196C46.3322 41.9621 48.072 42.649 49.9242 42.7355H66.9078V37.0108H50.3961V37.1441V37.1434Z" fill="#EE4037"/>
</g>
<defs>
<clipPath id="clip0_0_15">
<rect width="99" height="43" fill="white"/>
</clipPath>
</defs>
</svg>
