<svg width="13" height="13" viewBox="0 0 13 13" fill="none" xmlns="http://www.w3.org/2000/svg">
<g clip-path="url(#clip0_59_591)">
<path d="M12.9415 10.3616L12.8768 10.1666C12.7236 9.71114 12.2212 9.23607 11.7598 9.11091L10.0519 8.64434C9.58869 8.51834 8.92801 8.68777 8.58914 9.02662L7.97101 9.64474C5.7246 9.03773 3.96306 7.27614 3.35686 5.03016L3.97502 4.41201C4.31389 4.07314 4.4833 3.41332 4.35729 2.95016L3.89157 1.2414C3.76556 0.779081 3.28962 0.27677 2.83499 0.125207L2.64003 0.0596564C2.18452 -0.0919062 1.5349 0.0613728 1.19605 0.400216L0.271422 1.32569C0.106237 1.49001 0.000663465 1.95998 0.000663465 1.96169C-0.0316761 4.89732 1.11941 7.72565 3.19596 9.80222C5.2674 11.8737 8.08514 13.0231 11.0122 12.9984C11.0275 12.9984 11.5111 12.8945 11.6763 12.7302L12.601 11.8055C12.9398 11.4667 13.0931 10.8171 12.9415 10.3616Z" fill="#00822C"/>
</g>
<defs>
<clipPath id="clip0_59_591">
<rect width="13" height="13" fill="white"/>
</clipPath>
</defs>
</svg>
