<svg width="39" height="39" viewBox="0 0 39 39" fill="none" xmlns="http://www.w3.org/2000/svg">
<path d="M29.25 16.2499C29.2551 13.3117 28.2646 10.4584 26.4401 8.1553C24.6157 5.85216 22.0648 4.235 19.2034 3.56748C16.342 2.89996 13.3389 3.22146 10.6836 4.47955C8.0284 5.73764 5.87766 7.85812 4.58206 10.4953C3.28647 13.1324 2.92246 16.1307 3.54937 19.0013C4.17627 21.8718 5.75712 24.4454 8.03418 26.3023C10.3112 28.1592 13.1502 29.19 16.0882 29.2265C19.0262 29.2631 21.8899 28.3033 24.2125 26.5037L34.6125 36.9037L36.9037 34.6124L26.5037 24.2124C28.2774 21.9366 29.2436 19.1353 29.25 16.2499ZM16.25 25.9999C14.3216 25.9999 12.4366 25.4281 10.8332 24.3568C9.22981 23.2854 7.98012 21.7627 7.24217 19.9811C6.50422 18.1995 6.31113 16.2391 6.68734 14.3478C7.06354 12.4565 7.99214 10.7192 9.3557 9.35564C10.7193 7.99208 12.4565 7.06348 14.3479 6.68728C16.2392 6.31107 18.1996 6.50415 19.9812 7.24211C21.7627 7.98006 23.2855 9.22975 24.3568 10.8331C25.4282 12.4365 26 14.3216 26 16.2499C26 18.8358 24.9728 21.3157 23.1443 23.1442C21.3158 24.9727 18.8359 25.9999 16.25 25.9999Z" fill="black"/>
</svg>
