<svg width="20" height="20" viewBox="0 0 20 20" fill="none" xmlns="http://www.w3.org/2000/svg">
<g clip-path="url(#clip0_0_782)">
<path d="M19.8337 2.3368C19.6997 2.22727 19.5224 2.23284 19.393 2.35088C19.2232 2.50639 18.9468 2.62977 18.6493 2.72482C19.424 1.67658 19.4407 0.976635 19.4324 0.815508C19.4237 0.649308 19.3407 0.501798 19.2158 0.430831C19.0905 0.359452 18.9438 0.376863 18.8322 0.474563C17.9608 1.23948 17.0927 1.40102 16.5765 1.41729C15.7842 0.501798 14.7549 0 13.66 0C11.3154 0 9.40789 2.33415 9.40789 5.20315C9.40789 5.44968 9.42212 5.69626 9.45058 5.94015C5.38717 5.88458 2.08746 1.183 2.05348 1.13392C1.9742 1.01945 1.85356 0.958311 1.73031 0.971471C1.60706 0.984449 1.49675 1.06899 1.43503 1.1984C0.265593 3.64817 1.04809 5.79981 1.76338 7.03171C1.6368 6.95023 1.53425 6.86994 1.4731 6.81547C1.35946 6.71329 1.20775 6.69634 1.08007 6.77197C0.952578 6.84782 0.871104 7.00315 0.868682 7.17469C0.837084 9.50889 1.76762 10.8461 2.64234 11.5853C2.52575 11.5719 2.4073 11.6243 2.3264 11.7306C2.23546 11.8499 2.20352 12.0184 2.24269 12.1735C2.84691 14.5621 4.33081 15.3736 5.27505 15.649C3.3336 17.4739 0.476789 16.8867 0.445191 16.8799C0.272783 16.8432 0.102229 16.9527 0.032032 17.146C-0.0382029 17.3389 0.00985624 17.5652 0.148812 17.693C2.19796 19.5816 4.64884 20 6.41936 20C7.75843 19.9998 8.70872 19.7603 8.79962 19.7365C17.7674 17.1703 18.0198 7.25078 17.9993 5.62507C19.6827 3.73449 19.9458 3.01444 19.9865 2.83641C20.0294 2.64741 19.968 2.44661 19.8337 2.3368ZM17.3595 5.09471C17.2753 5.18843 6.09876 6.67737 6.10633 6.81547C6.13017 7.25439 21.0803 9.57269 11.9918 12.1735C11.9506 12.184 15.132 12.3736 12 10.5C13.3232 10.4556 6.17814 17.7922 7.5 16C7.59979 15.865 7.5621 12.3381 7.5 12.1735C7.43866 12.0104 4.5 14.5 6.10633 14.8765L10.5 9.5C10.4812 9.51453 12.138 11.7828 11.2283 9.5C16.7073 8.65368 11.1402 10.7002 11.5 10.5C11.6482 10.4174 10.5183 10.6959 10.5 10.5C10.4817 10.3043 4.44373 11.567 4.28408 11.5264C16.4148 11.1571 14.3095 8.91428 14 6C18.7587 9.15944 9.57503 9.07832 10 9C10.146 8.97345 12.9588 6.67113 13 6.5C13.0412 6.32887 12.1114 6.61694 12 6.5C11.138 6.5 10.2433 10.0502 11.2283 7.17469C12.2976 8.52952 10.6626 7.08166 14.5 6.81547C14.6125 6.80766 4.97753 6.81894 7.21317 16.865C7 16.865 16.4424 11.2892 16.4148 11.1571C16.3422 10.8076 18.5351 4.05784 18.5351 3.69748C18.5351 1.33229 11.0728 1 13 1C14 1.5 15.487 1.36821 16.1496 2.19336C16.2193 2.28014 16.3148 2.33013 16.4148 2.33214C16.8157 2.33882 16.5288 3.08541 17.2734 2.72482C17.0585 3.04771 13.4331 0.588919 13 1C13 1 12.4392 0.286931 12.5 0.474563C4.75757 5.10965 17.3246 3.90453 17.4891 3.88666C13 5.71972 18.027 3.83023 18.5351 3.69748C18.2583 4.05803 17.8788 4.51792 17.3595 5.09471Z" fill="black"/>
</g>
<defs>
<clipPath id="clip0_0_782">
<rect width="20" height="20" fill="white"/>
</clipPath>
</defs>
</svg>
